<svg id="Capa_1" enable-background="new 0 0 512.013 512.013" height="512" viewBox="0 0 512.013 512.013" width="512" xmlns="http://www.w3.org/2000/svg"><g><g><path d="m185.356 156.332c0-36.528 46.944-149.59 66.326-148.816 19.589.783 66.326 112.288 66.326 148.816s-29.695 66.14-66.326 66.14-66.326-29.611-66.326-66.14z" fill="#fee97d"/><path d="m251.682 7.517c-1.066-.042-2.219.278-3.44.892 20.561 35.224 43.766 98.185 43.766 123.924 0 36.528-29.695 66.14-66.326 66.14-10.969 0-21.307-2.672-30.421-7.373 11.691 18.826 32.583 31.373 56.421 31.373 36.631 0 66.326-29.612 66.326-66.14s-46.738-148.034-66.326-148.816z" fill="#fedf30"/><path d="m222.026 193.238c0-16.332 13.277-66.538 29.655-66.538s29.655 50.205 29.655 66.538-13.277 29.572-29.655 29.572-29.655-13.239-29.655-29.572z" fill="#fdb97e"/><path d="m281.337 193.238c0-4.717-1.109-12.262-3.08-20.605-12.126 15.708-31.16 25.84-52.576 25.84-1.073 0-2.138-.033-3.198-.083 2.099 11.91 11.336 21.366 23.156 23.806 1.99.179 4.004.278 6.042.278 2.054 0 4.083-.107 6.09-.289 13.457-2.803 23.566-14.696 23.566-28.947z" fill="#fea95c"/><path d="m480.506 360.343c0 17.31-4.4 33.59-12.15 47.78-4.6 8.41-10.36 16.08-17.08 22.8-18.06 18.06-43.01 29.23-70.58 29.23h-249.38c-46.62 0-85.77-31.96-96.74-75.16-2.01-7.88-3.07-16.14-3.07-24.65 0-7.18.76-14.19 2.21-20.94 4.08-19.16 13.67-36.28 27.02-49.63 18.06-18.06 43.01-29.23 70.58-29.23h249.38c39.1 0 72.95 22.48 89.31 55.22 6.72 13.42 10.5 28.56 10.5 44.58z" fill="#fe99a0"/><path d="m470.006 315.763c-15.166-30.351-45.367-51.87-80.842-54.852 5.859 6.565 10.87 13.902 14.842 21.852 6.72 13.42 10.5 28.56 10.5 44.58 0 17.31-4.4 33.59-12.15 47.78-4.6 8.41-10.36 16.08-17.08 22.8-18.06 18.06-43.01 29.23-70.58 29.23h-249.38c-2.846 0-5.663-.123-8.449-.357 18.276 20.462 44.851 33.357 74.449 33.357h249.38c27.57 0 52.52-11.17 70.58-29.23 6.72-6.72 12.48-14.39 17.08-22.8 7.75-14.19 12.15-30.47 12.15-47.78 0-16.02-3.78-31.16-10.5-44.58z" fill="#fd8087"/><path d="m480.506 360.343c0 17.31-4.4 33.59-12.15 47.78l-.04.01c-15.61-5.35-18.76-23.14-39.7-23.14-24.67 0-24.67 24.64-49.32 24.64-24.66 0-24.66-24.64-49.31-24.64s-24.65 24.64-49.3 24.64c-24.67 0-24.67-24.64-49.32-24.64-24.66 0-24.66 24.64-49.31 24.64-24.67 0-24.67-24.64-49.32-24.64-24.66 0-24.66 24.64-49.31 24.64-24.5 0-24.66-24.32-48.85-24.64-2.01-7.88-3.07-16.14-3.07-24.65 0-7.18.76-14.19 2.21-20.94h.38c24.65 0 24.65-24.65 49.3-24.65 24.67 0 24.67 24.65 49.32 24.65 24.66 0 24.66-24.65 49.31-24.65s24.65 24.65 49.3 24.65c24.67 0 24.67-24.65 49.32-24.65 24.66 0 24.66 24.65 49.31 24.65 24.67 0 24.67-24.65 49.32-24.65 24.66 0 24.66 24.65 49.31 24.65 21.69 0 24.31-19.06 41.4-23.65l.02.01c6.72 13.42 10.5 28.56 10.5 44.58z" fill="#ffd3d6"/><path d="m470.006 315.763-.02-.01c-17.09 4.59-19.71 23.65-41.4 23.65-6.057 0-10.622-1.493-14.434-3.738-1.171 14.204-5.301 27.567-11.796 39.458-4.6 8.41-10.36 16.08-17.08 22.8-4.001 4.001-8.341 7.662-12.972 10.94 2.102.486 4.405.77 6.992.77 24.65 0 24.65-24.64 49.32-24.64 20.94 0 24.09 17.79 39.7 23.14l.04-.01c7.75-14.19 12.15-30.47 12.15-47.78 0-16.02-3.78-31.16-10.5-44.58z" fill="#ffc4c8"/><path d="m343.247 504.513h-174.481c-25.179 0-45.591-20.412-45.591-45.591h265.662c0 25.179-20.411 45.591-45.59 45.591z" fill="#ffd3d6"/><path d="m123.175 458.922c0 6.783 1.493 13.215 4.15 19h214.575c12.691 0 20.539 14.067 13.645 24.723-.047.072-.093.144-.14.215 19.274-5.322 33.432-22.972 33.432-43.938z" fill="#ffc4c8"/></g><path d="m474.691 412.069c.092-.148.175-.303.257-.459 8.323-15.24 13.058-32.709 13.058-51.263 0-32.645-14.598-63.123-40.051-83.619-3.227-2.598-7.948-2.089-10.545 1.137-2.598 3.226-2.089 7.948 1.137 10.545 8.412 6.774 15.44 14.819 20.913 23.745-4.654 2.78-8.23 6.34-11.515 9.62-5.884 5.877-10.135 10.124-19.358 10.124-9.218 0-13.467-4.247-19.348-10.125-6.473-6.469-14.527-14.52-29.966-14.52-15.429 0-23.482 8.048-29.952 14.515-5.883 5.88-10.134 10.129-19.362 10.129-9.219 0-13.468-4.247-19.349-10.125-6.472-6.469-14.527-14.52-29.966-14.52-15.429 0-23.482 8.048-29.952 14.515-5.883 5.88-10.134 10.129-19.362 10.129-9.219 0-13.468-4.248-19.348-10.126-6.47-6.468-14.522-14.518-29.954-14.518-15.429 0-23.482 8.048-29.952 14.515-5.883 5.88-10.134 10.129-19.362 10.129-9.218 0-13.467-4.247-19.348-10.125-6.473-6.469-14.527-14.52-29.966-14.52-15.432 0-23.483 8.05-29.954 14.518-3.164 3.163-5.86 5.845-9.108 7.656 12.742-35.738 46.916-61.39 86.975-61.39h249.387c9.366 0 18.602 1.396 27.451 4.149 3.958 1.23 8.16-.978 9.39-4.934 1.23-3.955-.979-8.159-4.934-9.389-10.293-3.202-21.029-4.826-31.907-4.826h-121.514v-23.446c37.196-3.763 66.321-35.184 66.321-73.262 0-13.806-6.924-45.871-26.438-90.8-7.576-17.444-15.338-32.526-22.446-43.617-9.511-14.84-17.111-21.592-24.643-21.893-4.454-.174-18.037-.721-44.662 58.254-1.705 3.775-.026 8.217 3.749 9.922 3.774 1.705 8.218.025 9.921-3.75 14.794-32.77 26.279-47.349 30.486-49.317 4.259 2.031 17.511 18.196 34.858 58.752 14.458 33.803 24.172 66.937 24.172 82.45 0 18.861-8.988 35.659-22.909 46.393.805-3.03 1.238-6.209 1.238-9.488 0-9.914-3.847-27.57-9.147-41.982-7.822-21.271-17.246-32.056-28.008-32.056-10.763 0-20.187 10.785-28.009 32.056-5.3 14.412-9.146 32.068-9.146 41.982 0 3.279.434 6.458 1.238 9.488-13.92-10.734-22.909-27.532-22.909-46.393 0-12.226 6.059-35.737 16.208-62.893 1.45-3.88-.52-8.201-4.4-9.651-3.878-1.448-8.201.52-9.651 4.4-5.159 13.803-17.157 48.075-17.157 68.144 0 38.082 29.13 69.504 66.331 73.263v23.445h-112.87c-51.371 0-94.419 36.288-104.875 84.575-.035.144-.068.289-.095.436-1.527 7.195-2.336 14.652-2.336 22.296 0 9.146 1.153 18.027 3.316 26.508.023.091.04.184.067.274 10.705 41.512 45.694 73.365 88.847 79.46 3.728 25.653 25.86 45.423 52.53 45.423h174.48c26.67 0 48.801-19.77 52.53-45.423 34.006-4.799 62.938-25.598 78.914-54.517zm-245.165-218.831c0-7.098 3.077-22.805 8.225-36.805 6.789-18.459 12.715-22.233 13.931-22.233s7.142 3.773 13.93 22.233c5.148 14 8.225 29.707 8.225 36.805 0 10.479-7.369 19.269-17.214 21.512-1.631.136-3.276.222-4.941.222s-3.31-.086-4.941-.222c-9.845-2.243-17.215-11.033-17.215-21.512zm-165.474 139.144c5.88-5.878 10.129-10.126 19.348-10.126 9.228 0 13.479 4.249 19.362 10.129 6.47 6.467 14.523 14.515 29.952 14.515 15.439 0 23.494-8.051 29.966-14.52 5.881-5.878 10.13-10.125 19.348-10.125 9.219 0 13.468 4.248 19.348 10.126 6.47 6.468 14.522 14.518 29.954 14.518 15.439 0 23.494-8.051 29.966-14.52 5.881-5.878 10.13-10.125 19.348-10.125 9.228 0 13.479 4.249 19.362 10.129 6.47 6.467 14.523 14.515 29.953 14.515 15.438 0 23.494-8.051 29.966-14.52 5.881-5.878 10.13-10.125 19.348-10.125 9.228 0 13.479 4.249 19.362 10.129 6.47 6.467 14.523 14.515 29.952 14.515 15.431 0 23.486-8.046 29.958-14.511 2.608-2.605 5.002-4.986 7.71-6.781 4.41 10.875 6.75 22.633 6.75 34.739 0 13.363-2.858 26.069-7.988 37.546-2.199-1.657-4.246-3.682-6.454-5.889-6.471-6.466-14.524-14.513-29.951-14.513-15.439 0-23.494 8.051-29.966 14.52-5.881 5.878-10.13 10.125-19.348 10.125-9.228 0-13.479-4.249-19.362-10.129-6.47-6.467-14.523-14.515-29.952-14.515-15.432 0-23.483 8.05-29.954 14.518-5.88 5.878-10.129 10.126-19.348 10.126-9.228 0-13.479-4.249-19.362-10.129-6.47-6.467-14.523-14.515-29.952-14.515-15.438 0-23.493 8.051-29.966 14.52-5.881 5.878-10.13 10.125-19.349 10.125-9.228 0-13.479-4.249-19.362-10.129-6.47-6.467-14.523-14.515-29.952-14.515-15.439 0-23.494 8.051-29.966 14.52-5.881 5.878-10.13 10.125-19.348 10.125-9.228 0-13.479-4.249-19.364-10.129-5.467-5.464-12.096-12.057-23.346-13.964-1.117-5.729-1.709-11.644-1.709-17.694 0-4.721.358-9.359 1.045-13.891 11.652-1.754 18.421-8.496 24.001-14.075zm279.195 164.631h-174.48c-17.999 0-33.116-12.551-37.074-29.358h248.629c-3.96 16.807-19.077 29.358-37.075 29.358zm48.465-45.018c-.885-.368-1.856-.573-2.874-.573h-265.663c-1.019 0-1.989.205-2.874.573-33.434-3.993-61.438-25.923-74.077-55.869 2.458 1.718 4.692 3.95 7.234 6.49 6.473 6.468 14.529 14.519 29.967 14.519 15.429 0 23.481-8.048 29.952-14.515 5.883-5.88 10.134-10.129 19.362-10.129 9.218 0 13.467 4.247 19.348 10.125 6.472 6.469 14.527 14.52 29.966 14.52 15.43 0 23.482-8.048 29.953-14.515 5.883-5.88 10.134-10.129 19.362-10.129 9.218 0 13.467 4.247 19.348 10.125 6.473 6.469 14.527 14.52 29.966 14.52 15.432 0 23.483-8.05 29.954-14.518 5.88-5.878 10.129-10.126 19.348-10.126 9.218 0 13.467 4.247 19.348 10.125 6.473 6.469 14.527 14.52 29.966 14.52 15.429 0 23.482-8.048 29.952-14.515 5.883-5.88 10.134-10.129 19.362-10.129 9.217 0 13.466 4.247 19.348 10.124 2.85 2.848 5.938 5.929 9.777 8.522-14.617 22.094-38.476 37.565-66.025 40.855z"/></g></svg>